<svg xmlns="http://www.w3.org/2000/svg" xmlns:xlink="http://www.w3.org/1999/xlink" width="2000" zoomAndPan="magnify" viewBox="0 0 1500 1499.999933" height="2000" preserveAspectRatio="xMidYMid meet" version="1.0"><defs><g/><clipPath id="95285a1d2e"><path d="M 434.542969 664.457031 L 499 664.457031 L 499 667 L 434.542969 667 Z M 434.542969 664.457031 " clip-rule="nonzero"/></clipPath><clipPath id="9eba9f7ba5"><path d="M 434.542969 669 L 508 669 L 508 672 L 434.542969 672 Z M 434.542969 669 " clip-rule="nonzero"/></clipPath><clipPath id="6460ed8e4b"><path d="M 434.542969 674 L 514 674 L 514 677 L 434.542969 677 Z M 434.542969 674 " clip-rule="nonzero"/></clipPath><clipPath id="b3be7699fa"><path d="M 434.542969 679 L 518 679 L 518 682 L 434.542969 682 Z M 434.542969 679 " clip-rule="nonzero"/></clipPath><clipPath id="658e27fd26"><path d="M 434.542969 684 L 521 684 L 521 687 L 434.542969 687 Z M 434.542969 684 " clip-rule="nonzero"/></clipPath><clipPath id="67fa81caad"><path d="M 434.542969 689 L 523 689 L 523 692 L 434.542969 692 Z M 434.542969 689 " clip-rule="nonzero"/></clipPath><clipPath id="7ad00e4b54"><path d="M 434.542969 694 L 524 694 L 524 697 L 434.542969 697 Z M 434.542969 694 " clip-rule="nonzero"/></clipPath><clipPath id="51ea278378"><path d="M 434.542969 699 L 525 699 L 525 702 L 434.542969 702 Z M 434.542969 699 " clip-rule="nonzero"/></clipPath><clipPath id="f1a7123739"><path d="M 434.542969 704 L 525 704 L 525 707 L 434.542969 707 Z M 434.542969 704 " clip-rule="nonzero"/></clipPath><clipPath id="5c4b90fd49"><path d="M 434.542969 709 L 525 709 L 525 712 L 434.542969 712 Z M 434.542969 709 " clip-rule="nonzero"/></clipPath><clipPath id="e30ddf7bef"><path d="M 434.542969 714 L 524 714 L 524 717 L 434.542969 717 Z M 434.542969 714 " clip-rule="nonzero"/></clipPath><clipPath id="359cc1c55b"><path d="M 434.542969 719 L 523 719 L 523 722 L 434.542969 722 Z M 434.542969 719 " clip-rule="nonzero"/></clipPath><clipPath id="7e05c64bb7"><path d="M 434.542969 723 L 521 723 L 521 727 L 434.542969 727 Z M 434.542969 723 " clip-rule="nonzero"/></clipPath><clipPath id="ee402d1825"><path d="M 434.542969 728 L 518 728 L 518 732 L 434.542969 732 Z M 434.542969 728 " clip-rule="nonzero"/></clipPath><clipPath id="deff60b9ac"><path d="M 434.542969 733 L 514 733 L 514 737 L 434.542969 737 Z M 434.542969 733 " clip-rule="nonzero"/></clipPath><clipPath id="abbc358301"><path d="M 434.542969 738 L 508 738 L 508 742 L 434.542969 742 Z M 434.542969 738 " clip-rule="nonzero"/></clipPath><clipPath id="cfaf01df6b"><path d="M 434.542969 743 L 499 743 L 499 746.207031 L 434.542969 746.207031 Z M 434.542969 743 " clip-rule="nonzero"/></clipPath><clipPath id="d4d4c9245f"><path d="M 335.632812 753.679688 L 426.382812 753.679688 L 426.382812 835.429688 L 335.632812 835.429688 Z M 335.632812 753.679688 " clip-rule="nonzero"/></clipPath><clipPath id="c68ba43188"><path d="M 27 0.679688 L 91.03125 0.679688 L 91.03125 4 L 27 4 Z M 27 0.679688 " clip-rule="nonzero"/></clipPath><clipPath id="7c8bf26cb1"><path d="M 12 10 L 91.03125 10 L 91.03125 14 L 12 14 Z M 12 10 " clip-rule="nonzero"/></clipPath><clipPath id="68e677b927"><path d="M 2 25 L 91.03125 25 L 91.03125 28 L 2 28 Z M 2 25 " clip-rule="nonzero"/></clipPath><clipPath id="f9383ca7a2"><path d="M 0.632812 35 L 91 35 L 91 38 L 0.632812 38 Z M 0.632812 35 " clip-rule="nonzero"/></clipPath><clipPath id="e42a384be0"><path d="M 0.632812 40 L 91.03125 40 L 91.03125 43 L 0.632812 43 Z M 0.632812 40 " clip-rule="nonzero"/></clipPath><clipPath id="ddddc56d6c"><path d="M 0.632812 45 L 91.03125 45 L 91.03125 48 L 0.632812 48 Z M 0.632812 45 " clip-rule="nonzero"/></clipPath><clipPath id="4e82077570"><path d="M 1 50 L 91.03125 50 L 91.03125 53 L 1 53 Z M 1 50 " clip-rule="nonzero"/></clipPath><clipPath id="3abce5c127"><path d="M 3 55 L 91.03125 55 L 91.03125 58 L 3 58 Z M 3 55 " clip-rule="nonzero"/></clipPath><clipPath id="cc1482331f"><path d="M 5 60 L 91.03125 60 L 91.03125 63 L 5 63 Z M 5 60 " clip-rule="nonzero"/></clipPath><clipPath id="ca75b63553"><path d="M 8 65 L 91.03125 65 L 91.03125 68 L 8 68 Z M 8 65 " clip-rule="nonzero"/></clipPath><clipPath id="5f5c3d8e0d"><path d="M 12 70 L 91.03125 70 L 91.03125 73 L 12 73 Z M 12 70 " clip-rule="nonzero"/></clipPath><clipPath id="f03d19b9bc"><path d="M 18 75 L 91.03125 75 L 91.03125 78 L 18 78 Z M 18 75 " clip-rule="nonzero"/></clipPath><clipPath id="a8835953f9"><path d="M 27 80 L 91.03125 80 L 91.03125 82.429688 L 27 82.429688 Z M 27 80 " clip-rule="nonzero"/></clipPath><clipPath id="f3c1b08201"><rect x="0" width="92" y="0" height="83"/></clipPath><clipPath id="560d95d494"><path d="M 344.28125 655.914062 L 426.03125 655.914062 L 426.03125 746.664062 L 344.28125 746.664062 Z M 344.28125 655.914062 " clip-rule="nonzero"/></clipPath><clipPath id="79b7fa12d1"><path d="M 79 27 L 82.03125 27 L 82.03125 91.3125 L 79 91.3125 Z M 79 27 " clip-rule="nonzero"/></clipPath><clipPath id="4f63b6ecc2"><path d="M 74 18 L 78 18 L 78 91.3125 L 74 91.3125 Z M 74 18 " clip-rule="nonzero"/></clipPath><clipPath id="ba8b153eb4"><path d="M 69 12 L 73 12 L 73 91.3125 L 69 91.3125 Z M 69 12 " clip-rule="nonzero"/></clipPath><clipPath id="f04e884954"><path d="M 64 8 L 68 8 L 68 91.3125 L 64 91.3125 Z M 64 8 " clip-rule="nonzero"/></clipPath><clipPath id="0d58107034"><path d="M 59 5 L 63 5 L 63 91.3125 L 59 91.3125 Z M 59 5 " clip-rule="nonzero"/></clipPath><clipPath id="8f29a3dd2d"><path d="M 54 3 L 58 3 L 58 91.3125 L 54 91.3125 Z M 54 3 " clip-rule="nonzero"/></clipPath><clipPath id="2eb4e30872"><path d="M 49 1 L 53 1 L 53 91.3125 L 49 91.3125 Z M 49 1 " clip-rule="nonzero"/></clipPath><clipPath id="9e7c481f95"><path d="M 44 1 L 48 1 L 48 91.3125 L 44 91.3125 Z M 44 1 " clip-rule="nonzero"/></clipPath><clipPath id="00cdf4970a"><path d="M 39 0.914062 L 43 0.914062 L 43 91.3125 L 39 91.3125 Z M 39 0.914062 " clip-rule="nonzero"/></clipPath><clipPath id="8bf3ea9239"><path d="M 34 1 L 38 1 L 38 91.3125 L 34 91.3125 Z M 34 1 " clip-rule="nonzero"/></clipPath><clipPath id="e558f0c957"><path d="M 29 1 L 33 1 L 33 91.3125 L 29 91.3125 Z M 29 1 " clip-rule="nonzero"/></clipPath><clipPath id="d0bb6419b2"><path d="M 25 3 L 28 3 L 28 91.3125 L 25 91.3125 Z M 25 3 " clip-rule="nonzero"/></clipPath><clipPath id="a2413d623d"><path d="M 20 5 L 23 5 L 23 91.3125 L 20 91.3125 Z M 20 5 " clip-rule="nonzero"/></clipPath><clipPath id="04adbf914f"><path d="M 15 8 L 18 8 L 18 91.3125 L 15 91.3125 Z M 15 8 " clip-rule="nonzero"/></clipPath><clipPath id="a034b06f8d"><path d="M 10 12 L 13 12 L 13 91.3125 L 10 91.3125 Z M 10 12 " clip-rule="nonzero"/></clipPath><clipPath id="887cbef5db"><path d="M 5 18 L 8 18 L 8 91.3125 L 5 91.3125 Z M 5 18 " clip-rule="nonzero"/></clipPath><clipPath id="e7ecfc99c1"><path d="M 0.28125 27 L 3 27 L 3 91.3125 L 0.28125 91.3125 Z M 0.28125 27 " clip-rule="nonzero"/></clipPath><clipPath id="86be642ce9"><rect x="0" width="83" y="0" height="92"/></clipPath><clipPath id="a94dd36067"><path d="M 434.648438 753.683594 L 516.398438 753.683594 L 516.398438 844.433594 L 434.648438 844.433594 Z M 434.648438 753.683594 " clip-rule="nonzero"/></clipPath><clipPath id="ceb4cfbab5"><path d="M 0.648438 0.683594 L 4 0.683594 L 4 65 L 0.648438 65 Z M 0.648438 0.683594 " clip-rule="nonzero"/></clipPath><clipPath id="97ec0ad37f"><path d="M 5 0.683594 L 8 0.683594 L 8 74 L 5 74 Z M 5 0.683594 " clip-rule="nonzero"/></clipPath><clipPath id="80af6541a2"><path d="M 10 0.683594 L 13 0.683594 L 13 80 L 10 80 Z M 10 0.683594 " clip-rule="nonzero"/></clipPath><clipPath id="242ec1947a"><path d="M 15 0.683594 L 18 0.683594 L 18 84 L 15 84 Z M 15 0.683594 " clip-rule="nonzero"/></clipPath><clipPath id="e095de4f6a"><path d="M 20 0.683594 L 23 0.683594 L 23 87 L 20 87 Z M 20 0.683594 " clip-rule="nonzero"/></clipPath><clipPath id="97b9e9a165"><path d="M 25 0.683594 L 28 0.683594 L 28 89 L 25 89 Z M 25 0.683594 " clip-rule="nonzero"/></clipPath><clipPath id="98e10afe83"><path d="M 30 0.683594 L 33 0.683594 L 33 91 L 30 91 Z M 30 0.683594 " clip-rule="nonzero"/></clipPath><clipPath id="8b2a98775e"><path d="M 35 0.683594 L 38 0.683594 L 38 91 L 35 91 Z M 35 0.683594 " clip-rule="nonzero"/></clipPath><clipPath id="1713ce6b12"><path d="M 40 0.683594 L 43 0.683594 L 43 91.320312 L 40 91.320312 Z M 40 0.683594 " clip-rule="nonzero"/></clipPath><clipPath id="b54c2173b2"><path d="M 45 0.683594 L 48 0.683594 L 48 91 L 45 91 Z M 45 0.683594 " clip-rule="nonzero"/></clipPath><clipPath id="7b98519f40"><path d="M 50 0.683594 L 53 0.683594 L 53 91 L 50 91 Z M 50 0.683594 " clip-rule="nonzero"/></clipPath><clipPath id="053b23c445"><path d="M 55 0.683594 L 58 0.683594 L 58 89 L 55 89 Z M 55 0.683594 " clip-rule="nonzero"/></clipPath><clipPath id="8a5a4695c5"><path d="M 60 0.683594 L 63 0.683594 L 63 87 L 60 87 Z M 60 0.683594 " clip-rule="nonzero"/></clipPath><clipPath id="2c05202158"><path d="M 65 0.683594 L 68 0.683594 L 68 84 L 65 84 Z M 65 0.683594 " clip-rule="nonzero"/></clipPath><clipPath id="16994523b8"><path d="M 69 0.683594 L 73 0.683594 L 73 80 L 69 80 Z M 69 0.683594 " clip-rule="nonzero"/></clipPath><clipPath id="45ac8bdd4b"><path d="M 74 0.683594 L 78 0.683594 L 78 74 L 74 74 Z M 74 0.683594 " clip-rule="nonzero"/></clipPath><clipPath id="a5bf16fad0"><path d="M 79 0.683594 L 82.292969 0.683594 L 82.292969 65 L 79 65 Z M 79 0.683594 " clip-rule="nonzero"/></clipPath><clipPath id="2cafd0b25b"><rect x="0" width="83" y="0" height="92"/></clipPath></defs><g clip-path="url(#95285a1d2e)"><path fill="#167544" d="M 498.03125 666.925781 C 493.632812 665.3125 488.917969 664.457031 483.953125 664.457031 L 434.558594 664.457031 L 434.558594 666.925781 Z M 498.03125 666.925781 " fill-opacity="1" fill-rule="nonzero"/></g><g clip-path="url(#9eba9f7ba5)"><path fill="#167544" d="M 507.523438 671.863281 C 506.257812 670.976562 504.929688 670.121094 503.539062 669.394531 L 434.589844 669.394531 L 434.589844 671.863281 Z M 507.523438 671.863281 " fill-opacity="1" fill-rule="nonzero"/></g><g clip-path="url(#6460ed8e4b)"><path fill="#167544" d="M 513.316406 676.828125 C 512.460938 675.976562 511.605469 675.121094 510.6875 674.359375 L 434.558594 674.359375 L 434.558594 676.828125 Z M 513.316406 676.828125 " fill-opacity="1" fill-rule="nonzero"/></g><g clip-path="url(#b3be7699fa)"><path fill="#167544" d="M 517.460938 681.796875 C 516.859375 680.941406 516.226562 680.121094 515.5625 679.328125 L 434.589844 679.328125 L 434.589844 681.796875 Z M 517.460938 681.796875 " fill-opacity="1" fill-rule="nonzero"/></g><g clip-path="url(#658e27fd26)"><path fill="#167544" d="M 520.433594 686.765625 C 519.992188 685.910156 519.546875 685.085938 519.042969 684.296875 L 434.589844 684.296875 L 434.589844 686.765625 Z M 520.433594 686.765625 " fill-opacity="1" fill-rule="nonzero"/></g><g clip-path="url(#67fa81caad)"><path fill="#167544" d="M 522.585938 691.730469 C 522.300781 690.878906 521.953125 690.054688 521.605469 689.265625 L 434.558594 689.265625 L 434.558594 691.730469 Z M 522.585938 691.730469 " fill-opacity="1" fill-rule="nonzero"/></g><g clip-path="url(#7ad00e4b54)"><path fill="#167544" d="M 523.976562 696.667969 C 523.789062 695.84375 523.597656 694.992188 523.375 694.199219 L 434.589844 694.199219 L 434.589844 696.667969 Z M 523.976562 696.667969 " fill-opacity="1" fill-rule="nonzero"/></g><g clip-path="url(#51ea278378)"><path fill="#167544" d="M 524.738281 701.636719 C 524.671875 700.8125 524.578125 699.957031 524.453125 699.167969 L 434.589844 699.167969 L 434.589844 701.636719 Z M 524.738281 701.636719 " fill-opacity="1" fill-rule="nonzero"/></g><g clip-path="url(#f1a7123739)"><path fill="#167544" d="M 524.894531 704.136719 L 434.558594 704.136719 L 434.558594 706.601562 L 524.863281 706.601562 C 524.863281 706.191406 524.894531 705.78125 524.894531 705.371094 C 524.925781 704.957031 524.894531 704.546875 524.894531 704.136719 Z M 524.894531 704.136719 " fill-opacity="1" fill-rule="nonzero"/></g><g clip-path="url(#5c4b90fd49)"><path fill="#167544" d="M 434.558594 709.070312 L 434.558594 711.539062 L 524.421875 711.539062 C 524.546875 710.71875 524.640625 709.894531 524.707031 709.070312 Z M 434.558594 709.070312 " fill-opacity="1" fill-rule="nonzero"/></g><g clip-path="url(#e30ddf7bef)"><path fill="#167544" d="M 434.558594 714.039062 L 434.558594 716.507812 L 523.34375 716.507812 C 523.566406 715.683594 523.789062 714.863281 523.945312 714.039062 Z M 434.558594 714.039062 " fill-opacity="1" fill-rule="nonzero"/></g><g clip-path="url(#359cc1c55b)"><path fill="#167544" d="M 434.558594 719.007812 L 434.558594 721.476562 L 521.574219 721.476562 C 521.921875 720.652344 522.238281 719.828125 522.554688 719.007812 Z M 434.558594 719.007812 " fill-opacity="1" fill-rule="nonzero"/></g><g clip-path="url(#7e05c64bb7)"><path fill="#167544" d="M 434.558594 723.972656 L 434.558594 726.441406 L 519.074219 726.441406 C 519.546875 725.621094 520.023438 724.796875 520.464844 723.972656 Z M 434.558594 723.972656 " fill-opacity="1" fill-rule="nonzero"/></g><g clip-path="url(#ee402d1825)"><path fill="#167544" d="M 434.558594 728.941406 L 434.558594 731.410156 L 515.5625 731.410156 C 516.226562 730.617188 516.859375 729.765625 517.460938 728.941406 Z M 434.558594 728.941406 " fill-opacity="1" fill-rule="nonzero"/></g><g clip-path="url(#deff60b9ac)"><path fill="#167544" d="M 434.558594 733.878906 L 434.558594 736.347656 L 510.6875 736.347656 C 511.605469 735.554688 512.492188 734.730469 513.316406 733.878906 Z M 434.558594 733.878906 " fill-opacity="1" fill-rule="nonzero"/></g><g clip-path="url(#abbc358301)"><path fill="#167544" d="M 434.558594 738.847656 L 434.558594 741.3125 L 503.539062 741.3125 C 504.929688 740.554688 506.257812 739.730469 507.523438 738.847656 Z M 434.558594 738.847656 " fill-opacity="1" fill-rule="nonzero"/></g><g clip-path="url(#cfaf01df6b)"><path fill="#167544" d="M 434.558594 743.8125 L 434.558594 746.28125 L 482.8125 746.28125 C 483.191406 746.28125 483.570312 746.3125 483.953125 746.3125 C 484.332031 746.3125 484.710938 746.3125 485.089844 746.28125 C 489.648438 746.15625 493.980469 745.300781 498.0625 743.8125 Z M 434.558594 743.8125 " fill-opacity="1" fill-rule="nonzero"/></g><g clip-path="url(#d4d4c9245f)"><g transform="matrix(1, 0, 0, 1, 335, 753)"><g clip-path="url(#f3c1b08201)"><g clip-path="url(#c68ba43188)"><path fill="#167544" d="M 27.542969 3.148438 C 31.941406 1.535156 36.65625 0.679688 41.621094 0.679688 L 91.015625 0.679688 L 91.015625 3.148438 Z M 27.542969 3.148438 " fill-opacity="1" fill-rule="nonzero"/></g><path fill="#167544" d="M 18.050781 8.085938 C 19.316406 7.199219 20.644531 6.34375 22.035156 5.617188 L 90.980469 5.617188 L 90.980469 8.085938 Z M 18.050781 8.085938 " fill-opacity="1" fill-rule="nonzero"/><g clip-path="url(#7c8bf26cb1)"><path fill="#167544" d="M 12.257812 13.054688 C 13.113281 12.199219 13.96875 11.34375 14.886719 10.585938 L 91.015625 10.585938 L 91.015625 13.054688 Z M 12.257812 13.054688 " fill-opacity="1" fill-rule="nonzero"/></g><path fill="#167544" d="M 8.113281 18.019531 C 8.714844 17.167969 9.347656 16.34375 10.011719 15.550781 L 90.980469 15.550781 L 90.980469 18.019531 Z M 8.113281 18.019531 " fill-opacity="1" fill-rule="nonzero"/><path fill="#167544" d="M 5.140625 22.988281 C 5.582031 22.132812 6.027344 21.3125 6.53125 20.519531 L 90.980469 20.519531 L 90.980469 22.988281 Z M 5.140625 22.988281 " fill-opacity="1" fill-rule="nonzero"/><g clip-path="url(#68e677b927)"><path fill="#167544" d="M 2.988281 27.957031 C 3.273438 27.101562 3.621094 26.277344 3.96875 25.488281 L 91.015625 25.488281 L 91.015625 27.957031 Z M 2.988281 27.957031 " fill-opacity="1" fill-rule="nonzero"/></g><path fill="#167544" d="M 1.597656 32.890625 C 1.785156 32.070312 1.976562 31.214844 2.199219 30.425781 L 90.980469 30.425781 L 90.980469 32.890625 Z M 1.597656 32.890625 " fill-opacity="1" fill-rule="nonzero"/><g clip-path="url(#f9383ca7a2)"><path fill="#167544" d="M 0.835938 37.859375 C 0.898438 37.035156 0.996094 36.183594 1.121094 35.390625 L 90.980469 35.390625 L 90.980469 37.859375 Z M 0.835938 37.859375 " fill-opacity="1" fill-rule="nonzero"/></g><g clip-path="url(#e42a384be0)"><path fill="#167544" d="M 0.679688 40.359375 L 91.015625 40.359375 L 91.015625 42.828125 L 0.710938 42.828125 C 0.710938 42.414062 0.679688 42.003906 0.679688 41.59375 C 0.648438 41.183594 0.679688 40.769531 0.679688 40.359375 Z M 0.679688 40.359375 " fill-opacity="1" fill-rule="nonzero"/></g><g clip-path="url(#ddddc56d6c)"><path fill="#167544" d="M 91.015625 45.296875 L 91.015625 47.761719 L 1.152344 47.761719 C 1.027344 46.941406 0.933594 46.117188 0.867188 45.296875 Z M 91.015625 45.296875 " fill-opacity="1" fill-rule="nonzero"/></g><g clip-path="url(#4e82077570)"><path fill="#167544" d="M 91.015625 50.261719 L 91.015625 52.730469 L 2.230469 52.730469 C 2.007812 51.910156 1.785156 51.085938 1.628906 50.261719 Z M 91.015625 50.261719 " fill-opacity="1" fill-rule="nonzero"/></g><g clip-path="url(#3abce5c127)"><path fill="#167544" d="M 91.015625 55.230469 L 91.015625 57.699219 L 4 57.699219 C 3.652344 56.875 3.335938 56.054688 3.019531 55.230469 Z M 91.015625 55.230469 " fill-opacity="1" fill-rule="nonzero"/></g><g clip-path="url(#cc1482331f)"><path fill="#167544" d="M 91.015625 60.199219 L 91.015625 62.667969 L 6.5 62.667969 C 6.027344 61.84375 5.550781 61.019531 5.109375 60.199219 Z M 91.015625 60.199219 " fill-opacity="1" fill-rule="nonzero"/></g><g clip-path="url(#ca75b63553)"><path fill="#167544" d="M 91.015625 65.164062 L 91.015625 67.632812 L 10.011719 67.632812 C 9.347656 66.84375 8.714844 65.988281 8.113281 65.164062 Z M 91.015625 65.164062 " fill-opacity="1" fill-rule="nonzero"/></g><g clip-path="url(#5f5c3d8e0d)"><path fill="#167544" d="M 91.015625 70.101562 L 91.015625 72.570312 L 14.886719 72.570312 C 13.96875 71.777344 13.082031 70.957031 12.257812 70.101562 Z M 91.015625 70.101562 " fill-opacity="1" fill-rule="nonzero"/></g><g clip-path="url(#f03d19b9bc)"><path fill="#167544" d="M 91.015625 75.070312 L 91.015625 77.539062 L 22.035156 77.539062 C 20.644531 76.777344 19.316406 75.957031 18.050781 75.070312 Z M 91.015625 75.070312 " fill-opacity="1" fill-rule="nonzero"/></g><g clip-path="url(#a8835953f9)"><path fill="#167544" d="M 91.015625 80.039062 L 91.015625 82.503906 L 42.761719 82.503906 C 42.382812 82.503906 42 82.535156 41.621094 82.535156 C 41.242188 82.535156 40.863281 82.535156 40.484375 82.503906 C 35.925781 82.378906 31.59375 81.523438 27.511719 80.039062 Z M 91.015625 80.039062 " fill-opacity="1" fill-rule="nonzero"/></g></g></g></g><g clip-path="url(#560d95d494)"><g transform="matrix(1, 0, 0, 1, 344, 655)"><g clip-path="url(#86be642ce9)"><g clip-path="url(#79b7fa12d1)"><path fill="#063831" d="M 79.5625 27.824219 C 81.179688 32.222656 82.03125 36.933594 82.03125 41.902344 L 82.03125 91.292969 L 79.5625 91.292969 Z M 79.5625 27.824219 " fill-opacity="1" fill-rule="nonzero"/></g><g clip-path="url(#4f63b6ecc2)"><path fill="#063831" d="M 74.628906 18.332031 C 75.515625 19.597656 76.367188 20.925781 77.097656 22.316406 L 77.097656 91.261719 L 74.628906 91.261719 Z M 74.628906 18.332031 " fill-opacity="1" fill-rule="nonzero"/></g><g clip-path="url(#ba8b153eb4)"><path fill="#063831" d="M 69.660156 12.539062 C 70.515625 13.394531 71.367188 14.25 72.128906 15.167969 L 72.128906 91.292969 L 69.660156 91.292969 Z M 69.660156 12.539062 " fill-opacity="1" fill-rule="nonzero"/></g><g clip-path="url(#f04e884954)"><path fill="#063831" d="M 64.691406 8.394531 C 65.546875 8.996094 66.371094 9.628906 67.160156 10.292969 L 67.160156 91.261719 L 64.691406 91.261719 Z M 64.691406 8.394531 " fill-opacity="1" fill-rule="nonzero"/></g><g clip-path="url(#0d58107034)"><path fill="#063831" d="M 59.726562 5.421875 C 60.578125 5.863281 61.402344 6.308594 62.191406 6.8125 L 62.191406 91.261719 L 59.726562 91.261719 Z M 59.726562 5.421875 " fill-opacity="1" fill-rule="nonzero"/></g><g clip-path="url(#8f29a3dd2d)"><path fill="#063831" d="M 54.757812 3.269531 C 55.613281 3.554688 56.433594 3.902344 57.226562 4.25 L 57.226562 91.292969 L 54.757812 91.292969 Z M 54.757812 3.269531 " fill-opacity="1" fill-rule="nonzero"/></g><g clip-path="url(#2eb4e30872)"><path fill="#063831" d="M 49.820312 1.878906 C 50.644531 2.066406 51.5 2.257812 52.289062 2.476562 L 52.289062 91.261719 L 49.820312 91.261719 Z M 49.820312 1.878906 " fill-opacity="1" fill-rule="nonzero"/></g><g clip-path="url(#9e7c481f95)"><path fill="#063831" d="M 44.855469 1.117188 C 45.675781 1.179688 46.53125 1.277344 47.320312 1.402344 L 47.320312 91.261719 L 44.855469 91.261719 Z M 44.855469 1.117188 " fill-opacity="1" fill-rule="nonzero"/></g><g clip-path="url(#00cdf4970a)"><path fill="#063831" d="M 42.355469 0.960938 L 42.355469 91.292969 L 39.886719 91.292969 L 39.886719 0.992188 C 40.296875 0.992188 40.707031 0.960938 41.121094 0.960938 C 41.53125 0.929688 41.941406 0.960938 42.355469 0.960938 Z M 42.355469 0.960938 " fill-opacity="1" fill-rule="nonzero"/></g><g clip-path="url(#8bf3ea9239)"><path fill="#063831" d="M 37.417969 91.292969 L 34.949219 91.292969 L 34.949219 1.433594 C 35.773438 1.308594 36.59375 1.210938 37.417969 1.148438 Z M 37.417969 91.292969 " fill-opacity="1" fill-rule="nonzero"/></g><g clip-path="url(#e558f0c957)"><path fill="#063831" d="M 32.449219 91.292969 L 29.984375 91.292969 L 29.984375 2.511719 C 30.804688 2.289062 31.628906 2.066406 32.449219 1.910156 Z M 32.449219 91.292969 " fill-opacity="1" fill-rule="nonzero"/></g><g clip-path="url(#d0bb6419b2)"><path fill="#063831" d="M 27.484375 91.292969 L 25.015625 91.292969 L 25.015625 4.28125 C 25.835938 3.933594 26.660156 3.617188 27.484375 3.300781 Z M 27.484375 91.292969 " fill-opacity="1" fill-rule="nonzero"/></g><g clip-path="url(#a2413d623d)"><path fill="#063831" d="M 22.515625 91.292969 L 20.046875 91.292969 L 20.046875 6.78125 C 20.871094 6.308594 21.691406 5.832031 22.515625 5.390625 Z M 22.515625 91.292969 " fill-opacity="1" fill-rule="nonzero"/></g><g clip-path="url(#04adbf914f)"><path fill="#063831" d="M 17.546875 91.292969 L 15.078125 91.292969 L 15.078125 10.292969 C 15.871094 9.628906 16.726562 8.996094 17.546875 8.394531 Z M 17.546875 91.292969 " fill-opacity="1" fill-rule="nonzero"/></g><g clip-path="url(#a034b06f8d)"><path fill="#063831" d="M 12.613281 91.292969 L 10.144531 91.292969 L 10.144531 15.167969 C 10.933594 14.25 11.757812 13.363281 12.613281 12.539062 Z M 12.613281 91.292969 " fill-opacity="1" fill-rule="nonzero"/></g><g clip-path="url(#887cbef5db)"><path fill="#063831" d="M 7.644531 91.292969 L 5.175781 91.292969 L 5.175781 22.316406 C 5.933594 20.925781 6.757812 19.597656 7.644531 18.332031 Z M 7.644531 91.292969 " fill-opacity="1" fill-rule="nonzero"/></g><g clip-path="url(#e7ecfc99c1)"><path fill="#063831" d="M 2.675781 91.292969 L 0.207031 91.292969 L 0.207031 43.042969 C 0.207031 42.664062 0.175781 42.28125 0.175781 41.902344 C 0.175781 41.523438 0.175781 41.144531 0.207031 40.765625 C 0.335938 36.207031 1.1875 31.871094 2.675781 27.792969 Z M 2.675781 91.292969 " fill-opacity="1" fill-rule="nonzero"/></g></g></g></g><g clip-path="url(#a94dd36067)"><g transform="matrix(1, 0, 0, 1, 434, 753)"><g clip-path="url(#2cafd0b25b)"><g clip-path="url(#ceb4cfbab5)"><path fill="#374440" d="M 3.007812 64.171875 C 1.394531 59.773438 0.542969 55.058594 0.542969 50.089844 L 0.542969 0.699219 L 3.007812 0.699219 Z M 3.007812 64.171875 " fill-opacity="1" fill-rule="nonzero"/></g><g clip-path="url(#97ec0ad37f)"><path fill="#374440" d="M 7.945312 73.664062 C 7.058594 72.398438 6.207031 71.070312 5.476562 69.675781 L 5.476562 0.730469 L 7.945312 0.730469 Z M 7.945312 73.664062 " fill-opacity="1" fill-rule="nonzero"/></g><g clip-path="url(#80af6541a2)"><path fill="#374440" d="M 12.914062 79.453125 C 12.058594 78.601562 11.203125 77.746094 10.445312 76.828125 L 10.445312 0.699219 L 12.914062 0.699219 Z M 12.914062 79.453125 " fill-opacity="1" fill-rule="nonzero"/></g><g clip-path="url(#242ec1947a)"><path fill="#374440" d="M 17.882812 83.597656 C 17.027344 82.996094 16.203125 82.363281 15.414062 81.699219 L 15.414062 0.730469 L 17.882812 0.730469 Z M 17.882812 83.597656 " fill-opacity="1" fill-rule="nonzero"/></g><g clip-path="url(#e095de4f6a)"><path fill="#374440" d="M 22.847656 86.574219 C 21.996094 86.128906 21.171875 85.6875 20.378906 85.179688 L 20.378906 0.730469 L 22.847656 0.730469 Z M 22.847656 86.574219 " fill-opacity="1" fill-rule="nonzero"/></g><g clip-path="url(#97b9e9a165)"><path fill="#374440" d="M 27.816406 88.726562 C 26.960938 88.441406 26.140625 88.09375 25.347656 87.742188 L 25.347656 0.699219 L 27.816406 0.699219 Z M 27.816406 88.726562 " fill-opacity="1" fill-rule="nonzero"/></g><g clip-path="url(#98e10afe83)"><path fill="#374440" d="M 32.753906 90.117188 C 31.929688 89.925781 31.074219 89.738281 30.285156 89.515625 L 30.285156 0.730469 L 32.753906 0.730469 Z M 32.753906 90.117188 " fill-opacity="1" fill-rule="nonzero"/></g><g clip-path="url(#8b2a98775e)"><path fill="#374440" d="M 37.71875 90.875 C 36.898438 90.8125 36.042969 90.71875 35.253906 90.59375 L 35.253906 0.730469 L 37.71875 0.730469 Z M 37.71875 90.875 " fill-opacity="1" fill-rule="nonzero"/></g><g clip-path="url(#1713ce6b12)"><path fill="#374440" d="M 40.21875 91.035156 L 40.21875 0.699219 L 42.6875 0.699219 L 42.6875 91.003906 C 42.277344 91.003906 41.863281 91.035156 41.453125 91.035156 C 41.042969 91.066406 40.632812 91.035156 40.21875 91.035156 Z M 40.21875 91.035156 " fill-opacity="1" fill-rule="nonzero"/></g><g clip-path="url(#b54c2173b2)"><path fill="#374440" d="M 45.15625 0.699219 L 47.625 0.699219 L 47.625 90.558594 C 46.800781 90.6875 45.976562 90.78125 45.15625 90.84375 Z M 45.15625 0.699219 " fill-opacity="1" fill-rule="nonzero"/></g><g clip-path="url(#7b98519f40)"><path fill="#374440" d="M 50.125 0.699219 L 52.589844 0.699219 L 52.589844 89.484375 C 51.769531 89.707031 50.945312 89.925781 50.125 90.085938 Z M 50.125 0.699219 " fill-opacity="1" fill-rule="nonzero"/></g><g clip-path="url(#053b23c445)"><path fill="#374440" d="M 55.089844 0.699219 L 57.558594 0.699219 L 57.558594 87.710938 C 56.734375 88.058594 55.914062 88.378906 55.089844 88.695312 Z M 55.089844 0.699219 " fill-opacity="1" fill-rule="nonzero"/></g><g clip-path="url(#8a5a4695c5)"><path fill="#374440" d="M 60.058594 0.699219 L 62.527344 0.699219 L 62.527344 85.210938 C 61.703125 85.6875 60.882812 86.160156 60.058594 86.605469 Z M 60.058594 0.699219 " fill-opacity="1" fill-rule="nonzero"/></g><g clip-path="url(#2c05202158)"><path fill="#374440" d="M 65.027344 0.699219 L 67.496094 0.699219 L 67.496094 81.699219 C 66.703125 82.363281 65.847656 82.996094 65.027344 83.597656 Z M 65.027344 0.699219 " fill-opacity="1" fill-rule="nonzero"/></g><g clip-path="url(#16994523b8)"><path fill="#374440" d="M 69.960938 0.699219 L 72.429688 0.699219 L 72.429688 76.828125 C 71.640625 77.746094 70.816406 78.632812 69.960938 79.453125 Z M 69.960938 0.699219 " fill-opacity="1" fill-rule="nonzero"/></g><g clip-path="url(#45ac8bdd4b)"><path fill="#374440" d="M 74.929688 0.699219 L 77.398438 0.699219 L 77.398438 69.675781 C 76.636719 71.070312 75.816406 72.398438 74.929688 73.664062 Z M 74.929688 0.699219 " fill-opacity="1" fill-rule="nonzero"/></g><g clip-path="url(#a5bf16fad0)"><path fill="#374440" d="M 79.898438 0.699219 L 82.367188 0.699219 L 82.367188 48.953125 C 82.367188 49.332031 82.398438 49.710938 82.398438 50.089844 C 82.398438 50.472656 82.398438 50.851562 82.367188 51.230469 C 82.238281 55.785156 81.382812 60.121094 79.898438 64.203125 Z M 79.898438 0.699219 " fill-opacity="1" fill-rule="nonzero"/></g></g></g></g><g fill="#063831" fill-opacity="1"><g transform="translate(533.202755, 740.47422)"><g><path d="M 41.828125 -72.046875 L 70.90625 0 L 53.265625 0 L 47.9375 -14.40625 L 20.515625 -14.40625 L 15.1875 0 L -2.4375 0 L 26.640625 -72.046875 Z M 42.359375 -28.8125 L 34.3125 -49.78125 L 34.140625 -49.78125 L 26.109375 -28.8125 Z M 42.359375 -28.8125 "/></g></g></g><g fill="#063831" fill-opacity="1"><g transform="translate(601.667967, 740.47422)"><g><path d="M 5.234375 -72.046875 L 26.109375 -72.046875 C 36.117188 -72.046875 44.675781 -68.625 51.78125 -61.78125 C 58.882812 -54.945312 62.4375 -46.375 62.4375 -36.0625 C 62.4375 -25.695312 58.898438 -17.09375 51.828125 -10.25 C 44.753906 -3.414062 36.179688 0 26.109375 0 L 5.234375 0 Z M 21.65625 -14.671875 L 24.1875 -14.671875 C 30.1875 -14.671875 35.09375 -16.691406 38.90625 -20.734375 C 42.71875 -24.785156 44.65625 -29.867188 44.71875 -35.984375 C 44.71875 -42.097656 42.804688 -47.191406 38.984375 -51.265625 C 35.171875 -55.335938 30.238281 -57.375 24.1875 -57.375 L 21.65625 -57.375 Z M 21.65625 -14.671875 "/></g></g></g><g fill="#063831" fill-opacity="1"><g transform="translate(666.116086, 740.47422)"><g><path d="M 70.390625 -40.34375 L 70.390625 -24.71875 C 68.523438 -16.15625 64.445312 -9.675781 58.15625 -5.28125 C 51.875 -0.882812 44.859375 1.3125 37.109375 1.3125 C 27.390625 1.3125 19.109375 -2.320312 12.265625 -9.59375 C 5.429688 -16.875 2.015625 -25.671875 2.015625 -35.984375 C 2.015625 -46.460938 5.359375 -55.3125 12.046875 -62.53125 C 18.742188 -69.75 27.097656 -73.359375 37.109375 -73.359375 C 48.816406 -73.359375 58.078125 -69.253906 64.890625 -61.046875 L 54.140625 -49.25 C 50.296875 -55.425781 44.941406 -58.515625 38.078125 -58.515625 C 33.015625 -58.515625 28.691406 -56.316406 25.109375 -51.921875 C 21.523438 -47.523438 19.734375 -42.210938 19.734375 -35.984375 C 19.734375 -29.867188 21.523438 -24.640625 25.109375 -20.296875 C 28.691406 -15.960938 33.015625 -13.796875 38.078125 -13.796875 C 42.265625 -13.796875 45.914062 -15.0625 49.03125 -17.59375 C 52.144531 -20.125 53.703125 -23.488281 53.703125 -27.6875 L 37.109375 -27.6875 L 37.109375 -40.34375 Z M 70.390625 -40.34375 "/></g></g></g><g fill="#063831" fill-opacity="1"><g transform="translate(738.51105, 740.47422)"><g><path d="M 21.65625 -28.90625 L 21.65625 0 L 5.234375 0 L 5.234375 -72.046875 L 21.65625 -72.046875 L 21.65625 -43.3125 L 44.890625 -43.3125 L 44.890625 -72.046875 L 61.296875 -72.046875 L 61.296875 0 L 44.890625 0 L 44.890625 -28.90625 Z M 21.65625 -28.90625 "/></g></g></g><g fill="#c9973a" fill-opacity="1"><g transform="translate(524.862843, 786.361856)"><g><path d="M 15.90625 0 L 12.453125 0 L 11.21875 -3.828125 L 4.859375 -3.828125 L 3.609375 0 L 0.25 0 L 5.96875 -16.578125 L 10.1875 -16.578125 Z M 7.875 -13.125 L 5.75 -6.578125 L 10.3125 -6.578125 L 8.15625 -13.125 Z M 7.875 -13.125 "/></g></g></g><g fill="#c9973a" fill-opacity="1"><g transform="translate(541.062194, 786.361856)"><g><path d="M 12.65625 -16.578125 L 12.65625 -13.828125 L 5.4375 -13.828125 L 5.4375 -9.4375 L 12 -9.4375 L 12 -6.734375 L 5.4375 -6.734375 L 5.4375 0 L 2.15625 0 L 2.15625 -16.578125 Z M 12.65625 -16.578125 "/></g></g></g><g fill="#c9973a" fill-opacity="1"><g transform="translate(554.507044, 786.361856)"><g><path d="M 2.15625 0 L 2.15625 -16.578125 L 8.8125 -16.578125 C 10.519531 -16.578125 11.8125 -16.179688 12.6875 -15.390625 C 13.5625 -14.597656 14 -13.507812 14 -12.125 C 14 -11.113281 13.742188 -10.285156 13.234375 -9.640625 C 12.722656 -9.003906 11.960938 -8.515625 10.953125 -8.171875 L 10.953125 -7.9375 C 11.472656 -7.707031 11.894531 -7.367188 12.21875 -6.921875 C 12.539062 -6.484375 12.84375 -5.820312 13.125 -4.9375 L 14.78125 0 L 11.421875 0 L 9.796875 -4.953125 C 9.628906 -5.453125 9.441406 -5.835938 9.234375 -6.109375 C 9.023438 -6.390625 8.757812 -6.59375 8.4375 -6.71875 C 8.113281 -6.84375 7.695312 -6.90625 7.1875 -6.90625 L 5.4375 -6.90625 L 5.4375 0 Z M 8.40625 -9.5 C 10 -9.5 10.796875 -10.238281 10.796875 -11.71875 C 10.796875 -13.226562 10 -13.984375 8.40625 -13.984375 L 5.4375 -13.984375 L 5.4375 -9.5 Z M 8.40625 -9.5 "/></g></g></g><g fill="#c9973a" fill-opacity="1"><g transform="translate(570.048943, 786.361856)"><g><path d="M 5.4375 0 L 2.15625 0 L 2.15625 -16.578125 L 5.4375 -16.578125 Z M 5.4375 0 "/></g></g></g><g fill="#c9973a" fill-opacity="1"><g transform="translate(577.690082, 786.361856)"><g><path d="M 9.0625 0.234375 C 7.53125 0.234375 6.179688 -0.0820312 5.015625 -0.71875 C 3.859375 -1.351562 2.945312 -2.304688 2.28125 -3.578125 C 1.625 -4.847656 1.296875 -6.414062 1.296875 -8.28125 C 1.296875 -10.15625 1.625 -11.726562 2.28125 -13 C 2.945312 -14.269531 3.859375 -15.222656 5.015625 -15.859375 C 6.179688 -16.492188 7.53125 -16.8125 9.0625 -16.8125 C 10.65625 -16.8125 12.007812 -16.5 13.125 -15.875 C 14.238281 -15.25 15.035156 -14.300781 15.515625 -13.03125 L 13.125 -11.5625 L 12.828125 -11.578125 C 12.472656 -12.441406 11.988281 -13.054688 11.375 -13.421875 C 10.769531 -13.796875 10 -13.984375 9.0625 -13.984375 C 7.6875 -13.984375 6.613281 -13.53125 5.84375 -12.625 C 5.070312 -11.71875 4.6875 -10.269531 4.6875 -8.28125 C 4.6875 -6.3125 5.070312 -4.867188 5.84375 -3.953125 C 6.613281 -3.046875 7.6875 -2.59375 9.0625 -2.59375 C 11.21875 -2.59375 12.535156 -3.640625 13.015625 -5.734375 L 13.296875 -5.734375 L 15.71875 -4.484375 C 15.257812 -2.910156 14.484375 -1.726562 13.390625 -0.9375 C 12.296875 -0.15625 10.851562 0.234375 9.0625 0.234375 Z M 9.0625 0.234375 "/></g></g></g><g fill="#c9973a" fill-opacity="1"><g transform="translate(593.991445, 786.361856)"><g><path d="M 15.90625 0 L 12.453125 0 L 11.21875 -3.828125 L 4.859375 -3.828125 L 3.609375 0 L 0.25 0 L 5.96875 -16.578125 L 10.1875 -16.578125 Z M 7.875 -13.125 L 5.75 -6.578125 L 10.3125 -6.578125 L 8.15625 -13.125 Z M 7.875 -13.125 "/></g></g></g><g fill="#c9973a" fill-opacity="1"><g transform="translate(610.190796, 786.361856)"><g><path d="M 5.328125 0 L 2.15625 0 L 2.15625 -16.578125 L 5.90625 -16.578125 L 12.5625 -5.890625 L 12.859375 -5.9375 L 12.859375 -16.578125 L 16.015625 -16.578125 L 16.015625 0 L 12.65625 0 L 5.609375 -11.40625 L 5.328125 -11.359375 Z M 5.328125 0 "/></g></g></g><g fill="#c9973a" fill-opacity="1"><g transform="translate(628.407843, 786.361856)"><g/></g></g><g fill="#c9973a" fill-opacity="1"><g transform="translate(633.929273, 786.361856)"><g><path d="M 8.125 -16.578125 C 10.8125 -16.578125 12.863281 -15.878906 14.28125 -14.484375 C 15.695312 -13.097656 16.40625 -11.03125 16.40625 -8.28125 C 16.40625 -5.550781 15.695312 -3.488281 14.28125 -2.09375 C 12.863281 -0.695312 10.8125 0 8.125 0 L 2.15625 0 L 2.15625 -16.578125 Z M 7.921875 -2.75 C 9.628906 -2.75 10.90625 -3.1875 11.75 -4.0625 C 12.601562 -4.9375 13.03125 -6.34375 13.03125 -8.28125 C 13.03125 -10.226562 12.601562 -11.632812 11.75 -12.5 C 10.90625 -13.375 9.628906 -13.8125 7.921875 -13.8125 L 5.4375 -13.8125 L 5.4375 -2.75 Z M 7.921875 -2.75 "/></g></g></g><g fill="#c9973a" fill-opacity="1"><g transform="translate(651.692906, 786.361856)"><g><path d="M 5.4375 -7.28125 L 5.4375 -2.75 L 13.34375 -2.75 L 13.34375 0 L 2.15625 0 L 2.15625 -16.578125 L 13.15625 -16.578125 L 13.15625 -13.828125 L 5.4375 -13.828125 L 5.4375 -9.953125 L 12.1875 -9.953125 L 12.1875 -7.28125 Z M 5.4375 -7.28125 "/></g></g></g><g fill="#c9973a" fill-opacity="1"><g transform="translate(665.987914, 786.361856)"><g><path d="M 5.15625 0 L 2.15625 0 L 2.15625 -16.578125 L 6.4375 -16.578125 L 10.640625 -4.390625 L 10.875 -4.390625 L 15.046875 -16.578125 L 19.234375 -16.578125 L 19.234375 0 L 16.125 0 L 16.125 -10.953125 L 15.84375 -11 L 12 0 L 9.28125 0 L 5.4375 -11 L 5.15625 -10.953125 Z M 5.15625 0 "/></g></g></g><g fill="#c9973a" fill-opacity="1"><g transform="translate(687.424207, 786.361856)"><g><path d="M 9.03125 0.234375 C 7.507812 0.234375 6.171875 -0.0703125 5.015625 -0.6875 C 3.859375 -1.3125 2.945312 -2.257812 2.28125 -3.53125 C 1.625 -4.800781 1.296875 -6.382812 1.296875 -8.28125 C 1.296875 -10.1875 1.625 -11.773438 2.28125 -13.046875 C 2.945312 -14.316406 3.859375 -15.257812 5.015625 -15.875 C 6.171875 -16.5 7.507812 -16.8125 9.03125 -16.8125 C 10.550781 -16.8125 11.890625 -16.503906 13.046875 -15.890625 C 14.203125 -15.273438 15.109375 -14.328125 15.765625 -13.046875 C 16.421875 -11.773438 16.75 -10.1875 16.75 -8.28125 C 16.75 -6.382812 16.421875 -4.796875 15.765625 -3.515625 C 15.109375 -2.242188 14.203125 -1.300781 13.046875 -0.6875 C 11.890625 -0.0703125 10.550781 0.234375 9.03125 0.234375 Z M 9.03125 -2.609375 C 10.4375 -2.609375 11.507812 -3.054688 12.25 -3.953125 C 12.988281 -4.859375 13.359375 -6.300781 13.359375 -8.28125 C 13.359375 -10.269531 12.988281 -11.71875 12.25 -12.625 C 11.507812 -13.53125 10.4375 -13.984375 9.03125 -13.984375 C 7.625 -13.984375 6.546875 -13.53125 5.796875 -12.625 C 5.054688 -11.71875 4.6875 -10.269531 4.6875 -8.28125 C 4.6875 -6.300781 5.054688 -4.859375 5.796875 -3.953125 C 6.546875 -3.054688 7.625 -2.609375 9.03125 -2.609375 Z M 9.03125 -2.609375 "/></g></g></g><g fill="#c9973a" fill-opacity="1"><g transform="translate(705.5279, 786.361856)"><g><path d="M 9.0625 0.234375 C 7.53125 0.234375 6.179688 -0.0820312 5.015625 -0.71875 C 3.859375 -1.351562 2.945312 -2.304688 2.28125 -3.578125 C 1.625 -4.847656 1.296875 -6.414062 1.296875 -8.28125 C 1.296875 -10.15625 1.625 -11.726562 2.28125 -13 C 2.945312 -14.269531 3.859375 -15.222656 5.015625 -15.859375 C 6.179688 -16.492188 7.53125 -16.8125 9.0625 -16.8125 C 10.65625 -16.8125 12.007812 -16.5 13.125 -15.875 C 14.238281 -15.25 15.035156 -14.300781 15.515625 -13.03125 L 13.125 -11.5625 L 12.828125 -11.578125 C 12.472656 -12.441406 11.988281 -13.054688 11.375 -13.421875 C 10.769531 -13.796875 10 -13.984375 9.0625 -13.984375 C 7.6875 -13.984375 6.613281 -13.53125 5.84375 -12.625 C 5.070312 -11.71875 4.6875 -10.269531 4.6875 -8.28125 C 4.6875 -6.3125 5.070312 -4.867188 5.84375 -3.953125 C 6.613281 -3.046875 7.6875 -2.59375 9.0625 -2.59375 C 11.21875 -2.59375 12.535156 -3.640625 13.015625 -5.734375 L 13.296875 -5.734375 L 15.71875 -4.484375 C 15.257812 -2.910156 14.484375 -1.726562 13.390625 -0.9375 C 12.296875 -0.15625 10.851562 0.234375 9.0625 0.234375 Z M 9.0625 0.234375 "/></g></g></g><g fill="#c9973a" fill-opacity="1"><g transform="translate(721.829264, 786.361856)"><g><path d="M 2.15625 0 L 2.15625 -16.578125 L 8.8125 -16.578125 C 10.519531 -16.578125 11.8125 -16.179688 12.6875 -15.390625 C 13.5625 -14.597656 14 -13.507812 14 -12.125 C 14 -11.113281 13.742188 -10.285156 13.234375 -9.640625 C 12.722656 -9.003906 11.960938 -8.515625 10.953125 -8.171875 L 10.953125 -7.9375 C 11.472656 -7.707031 11.894531 -7.367188 12.21875 -6.921875 C 12.539062 -6.484375 12.84375 -5.820312 13.125 -4.9375 L 14.78125 0 L 11.421875 0 L 9.796875 -4.953125 C 9.628906 -5.453125 9.441406 -5.835938 9.234375 -6.109375 C 9.023438 -6.390625 8.757812 -6.59375 8.4375 -6.71875 C 8.113281 -6.84375 7.695312 -6.90625 7.1875 -6.90625 L 5.4375 -6.90625 L 5.4375 0 Z M 8.40625 -9.5 C 10 -9.5 10.796875 -10.238281 10.796875 -11.71875 C 10.796875 -13.226562 10 -13.984375 8.40625 -13.984375 L 5.4375 -13.984375 L 5.4375 -9.5 Z M 8.40625 -9.5 "/></g></g></g><g fill="#c9973a" fill-opacity="1"><g transform="translate(737.371163, 786.361856)"><g><path d="M 15.90625 0 L 12.453125 0 L 11.21875 -3.828125 L 4.859375 -3.828125 L 3.609375 0 L 0.25 0 L 5.96875 -16.578125 L 10.1875 -16.578125 Z M 7.875 -13.125 L 5.75 -6.578125 L 10.3125 -6.578125 L 8.15625 -13.125 Z M 7.875 -13.125 "/></g></g></g><g fill="#c9973a" fill-opacity="1"><g transform="translate(753.570525, 786.361856)"><g><path d="M 9.0625 0.234375 C 7.53125 0.234375 6.179688 -0.0820312 5.015625 -0.71875 C 3.859375 -1.351562 2.945312 -2.304688 2.28125 -3.578125 C 1.625 -4.847656 1.296875 -6.414062 1.296875 -8.28125 C 1.296875 -10.15625 1.625 -11.726562 2.28125 -13 C 2.945312 -14.269531 3.859375 -15.222656 5.015625 -15.859375 C 6.179688 -16.492188 7.53125 -16.8125 9.0625 -16.8125 C 10.65625 -16.8125 12.007812 -16.5 13.125 -15.875 C 14.238281 -15.25 15.035156 -14.300781 15.515625 -13.03125 L 13.125 -11.5625 L 12.828125 -11.578125 C 12.472656 -12.441406 11.988281 -13.054688 11.375 -13.421875 C 10.769531 -13.796875 10 -13.984375 9.0625 -13.984375 C 7.6875 -13.984375 6.613281 -13.53125 5.84375 -12.625 C 5.070312 -11.71875 4.6875 -10.269531 4.6875 -8.28125 C 4.6875 -6.3125 5.070312 -4.867188 5.84375 -3.953125 C 6.613281 -3.046875 7.6875 -2.59375 9.0625 -2.59375 C 11.21875 -2.59375 12.535156 -3.640625 13.015625 -5.734375 L 13.296875 -5.734375 L 15.71875 -4.484375 C 15.257812 -2.910156 14.484375 -1.726562 13.390625 -0.9375 C 12.296875 -0.15625 10.851562 0.234375 9.0625 0.234375 Z M 9.0625 0.234375 "/></g></g></g><g fill="#c9973a" fill-opacity="1"><g transform="translate(769.871877, 786.361856)"><g><path d="M 9.078125 0 L 5.8125 0 L 5.8125 -6.5 L 0.078125 -16.578125 L 3.59375 -16.578125 L 7.375 -10.0625 L 7.65625 -10.0625 L 11.375 -16.578125 L 14.8125 -16.578125 L 9.078125 -6.5 Z M 9.078125 0 "/></g></g></g><g fill="#c9973a" fill-opacity="1"><g transform="translate(784.801678, 786.361856)"><g/></g></g><g fill="#c9973a" fill-opacity="1"><g transform="translate(790.323086, 786.361856)"><g><path d="M 15.90625 0 L 12.453125 0 L 11.21875 -3.828125 L 4.859375 -3.828125 L 3.609375 0 L 0.25 0 L 5.96875 -16.578125 L 10.1875 -16.578125 Z M 7.875 -13.125 L 5.75 -6.578125 L 10.3125 -6.578125 L 8.15625 -13.125 Z M 7.875 -13.125 "/></g></g></g><g fill="#c9973a" fill-opacity="1"><g transform="translate(806.522449, 786.361856)"><g><path d="M 5.328125 0 L 2.15625 0 L 2.15625 -16.578125 L 5.90625 -16.578125 L 12.5625 -5.890625 L 12.859375 -5.9375 L 12.859375 -16.578125 L 16.015625 -16.578125 L 16.015625 0 L 12.65625 0 L 5.609375 -11.40625 L 5.328125 -11.359375 Z M 5.328125 0 "/></g></g></g><g fill="#c9973a" fill-opacity="1"><g transform="translate(824.739496, 786.361856)"><g><path d="M 8.125 -16.578125 C 10.8125 -16.578125 12.863281 -15.878906 14.28125 -14.484375 C 15.695312 -13.097656 16.40625 -11.03125 16.40625 -8.28125 C 16.40625 -5.550781 15.695312 -3.488281 14.28125 -2.09375 C 12.863281 -0.695312 10.8125 0 8.125 0 L 2.15625 0 L 2.15625 -16.578125 Z M 7.921875 -2.75 C 9.628906 -2.75 10.90625 -3.1875 11.75 -4.0625 C 12.601562 -4.9375 13.03125 -6.34375 13.03125 -8.28125 C 13.03125 -10.226562 12.601562 -11.632812 11.75 -12.5 C 10.90625 -13.375 9.628906 -13.8125 7.921875 -13.8125 L 5.4375 -13.8125 L 5.4375 -2.75 Z M 7.921875 -2.75 "/></g></g></g><g fill="#c9973a" fill-opacity="1"><g transform="translate(569.909714, 818.611853)"><g/></g></g><g fill="#c9973a" fill-opacity="1"><g transform="translate(575.440964, 818.611853)"><g><path d="M 8.046875 0.234375 C 6.660156 0.234375 5.460938 -0.078125 4.453125 -0.703125 C 3.453125 -1.335938 2.675781 -2.289062 2.125 -3.5625 C 1.570312 -4.832031 1.296875 -6.40625 1.296875 -8.28125 C 1.296875 -10.175781 1.625 -11.757812 2.28125 -13.03125 C 2.945312 -14.300781 3.863281 -15.25 5.03125 -15.875 C 6.195312 -16.5 7.550781 -16.8125 9.09375 -16.8125 C 10.675781 -16.8125 12.023438 -16.515625 13.140625 -15.921875 C 14.265625 -15.335938 15.054688 -14.460938 15.515625 -13.296875 L 13.125 -11.84375 L 12.828125 -11.859375 C 12.492188 -12.597656 12.015625 -13.132812 11.390625 -13.46875 C 10.773438 -13.8125 10.007812 -13.984375 9.09375 -13.984375 C 7.664062 -13.984375 6.570312 -13.53125 5.8125 -12.625 C 5.0625 -11.726562 4.6875 -10.28125 4.6875 -8.28125 C 4.6875 -6.28125 5.035156 -4.828125 5.734375 -3.921875 C 6.441406 -3.015625 7.488281 -2.5625 8.875 -2.5625 C 10.070312 -2.5625 10.953125 -2.828125 11.515625 -3.359375 C 12.085938 -3.898438 12.375 -4.703125 12.375 -5.765625 L 12.375 -6.484375 L 8.453125 -6.484375 L 8.453125 -9.15625 L 15.625 -9.15625 L 15.625 0 L 12.5 0 L 12.5 -2.21875 L 12.25 -2.25 C 11.914062 -1.457031 11.398438 -0.84375 10.703125 -0.40625 C 10.015625 0.0195312 9.128906 0.234375 8.046875 0.234375 Z M 8.046875 0.234375 "/></g></g></g><g fill="#c9973a" fill-opacity="1"><g transform="translate(592.773852, 818.611853)"><g><path d="M 9.03125 0.234375 C 7.507812 0.234375 6.171875 -0.0703125 5.015625 -0.6875 C 3.859375 -1.3125 2.945312 -2.257812 2.28125 -3.53125 C 1.625 -4.800781 1.296875 -6.382812 1.296875 -8.28125 C 1.296875 -10.1875 1.625 -11.773438 2.28125 -13.046875 C 2.945312 -14.316406 3.859375 -15.257812 5.015625 -15.875 C 6.171875 -16.5 7.507812 -16.8125 9.03125 -16.8125 C 10.550781 -16.8125 11.890625 -16.503906 13.046875 -15.890625 C 14.203125 -15.273438 15.109375 -14.328125 15.765625 -13.046875 C 16.421875 -11.773438 16.75 -10.1875 16.75 -8.28125 C 16.75 -6.382812 16.421875 -4.796875 15.765625 -3.515625 C 15.109375 -2.242188 14.203125 -1.300781 13.046875 -0.6875 C 11.890625 -0.0703125 10.550781 0.234375 9.03125 0.234375 Z M 9.03125 -2.609375 C 10.4375 -2.609375 11.507812 -3.054688 12.25 -3.953125 C 12.988281 -4.859375 13.359375 -6.300781 13.359375 -8.28125 C 13.359375 -10.269531 12.988281 -11.71875 12.25 -12.625 C 11.507812 -13.53125 10.4375 -13.984375 9.03125 -13.984375 C 7.625 -13.984375 6.546875 -13.53125 5.796875 -12.625 C 5.054688 -11.71875 4.6875 -10.269531 4.6875 -8.28125 C 4.6875 -6.300781 5.054688 -4.859375 5.796875 -3.953125 C 6.546875 -3.054688 7.625 -2.609375 9.03125 -2.609375 Z M 9.03125 -2.609375 "/></g></g></g><g fill="#c9973a" fill-opacity="1"><g transform="translate(610.877545, 818.611853)"><g><path d="M 9.859375 0 L 5.890625 0 L 0.296875 -16.578125 L 3.78125 -16.578125 L 7.796875 -4.21875 L 8.078125 -4.21875 L 12.046875 -16.578125 L 15.4375 -16.578125 Z M 9.859375 0 "/></g></g></g><g fill="#c9973a" fill-opacity="1"><g transform="translate(626.657481, 818.611853)"><g><path d="M 5.4375 -7.28125 L 5.4375 -2.75 L 13.34375 -2.75 L 13.34375 0 L 2.15625 0 L 2.15625 -16.578125 L 13.15625 -16.578125 L 13.15625 -13.828125 L 5.4375 -13.828125 L 5.4375 -9.953125 L 12.1875 -9.953125 L 12.1875 -7.28125 Z M 5.4375 -7.28125 "/></g></g></g><g fill="#c9973a" fill-opacity="1"><g transform="translate(640.95249, 818.611853)"><g><path d="M 2.15625 0 L 2.15625 -16.578125 L 8.8125 -16.578125 C 10.519531 -16.578125 11.8125 -16.179688 12.6875 -15.390625 C 13.5625 -14.597656 14 -13.507812 14 -12.125 C 14 -11.113281 13.742188 -10.285156 13.234375 -9.640625 C 12.722656 -9.003906 11.960938 -8.515625 10.953125 -8.171875 L 10.953125 -7.9375 C 11.472656 -7.707031 11.894531 -7.367188 12.21875 -6.921875 C 12.539062 -6.484375 12.84375 -5.820312 13.125 -4.9375 L 14.78125 0 L 11.421875 0 L 9.796875 -4.953125 C 9.628906 -5.453125 9.441406 -5.835938 9.234375 -6.109375 C 9.023438 -6.390625 8.757812 -6.59375 8.4375 -6.71875 C 8.113281 -6.84375 7.695312 -6.90625 7.1875 -6.90625 L 5.4375 -6.90625 L 5.4375 0 Z M 8.40625 -9.5 C 10 -9.5 10.796875 -10.238281 10.796875 -11.71875 C 10.796875 -13.226562 10 -13.984375 8.40625 -13.984375 L 5.4375 -13.984375 L 5.4375 -9.5 Z M 8.40625 -9.5 "/></g></g></g><g fill="#c9973a" fill-opacity="1"><g transform="translate(656.494389, 818.611853)"><g><path d="M 5.328125 0 L 2.15625 0 L 2.15625 -16.578125 L 5.90625 -16.578125 L 12.5625 -5.890625 L 12.859375 -5.9375 L 12.859375 -16.578125 L 16.015625 -16.578125 L 16.015625 0 L 12.65625 0 L 5.609375 -11.40625 L 5.328125 -11.359375 Z M 5.328125 0 "/></g></g></g><g fill="#c9973a" fill-opacity="1"><g transform="translate(674.711436, 818.611853)"><g><path d="M 15.90625 0 L 12.453125 0 L 11.21875 -3.828125 L 4.859375 -3.828125 L 3.609375 0 L 0.25 0 L 5.96875 -16.578125 L 10.1875 -16.578125 Z M 7.875 -13.125 L 5.75 -6.578125 L 10.3125 -6.578125 L 8.15625 -13.125 Z M 7.875 -13.125 "/></g></g></g><g fill="#c9973a" fill-opacity="1"><g transform="translate(690.910787, 818.611853)"><g><path d="M 5.328125 0 L 2.15625 0 L 2.15625 -16.578125 L 5.90625 -16.578125 L 12.5625 -5.890625 L 12.859375 -5.9375 L 12.859375 -16.578125 L 16.015625 -16.578125 L 16.015625 0 L 12.65625 0 L 5.609375 -11.40625 L 5.328125 -11.359375 Z M 5.328125 0 "/></g></g></g><g fill="#c9973a" fill-opacity="1"><g transform="translate(709.127834, 818.611853)"><g><path d="M 9.0625 0.234375 C 7.53125 0.234375 6.179688 -0.0820312 5.015625 -0.71875 C 3.859375 -1.351562 2.945312 -2.304688 2.28125 -3.578125 C 1.625 -4.847656 1.296875 -6.414062 1.296875 -8.28125 C 1.296875 -10.15625 1.625 -11.726562 2.28125 -13 C 2.945312 -14.269531 3.859375 -15.222656 5.015625 -15.859375 C 6.179688 -16.492188 7.53125 -16.8125 9.0625 -16.8125 C 10.65625 -16.8125 12.007812 -16.5 13.125 -15.875 C 14.238281 -15.25 15.035156 -14.300781 15.515625 -13.03125 L 13.125 -11.5625 L 12.828125 -11.578125 C 12.472656 -12.441406 11.988281 -13.054688 11.375 -13.421875 C 10.769531 -13.796875 10 -13.984375 9.0625 -13.984375 C 7.6875 -13.984375 6.613281 -13.53125 5.84375 -12.625 C 5.070312 -11.71875 4.6875 -10.269531 4.6875 -8.28125 C 4.6875 -6.3125 5.070312 -4.867188 5.84375 -3.953125 C 6.613281 -3.046875 7.6875 -2.59375 9.0625 -2.59375 C 11.21875 -2.59375 12.535156 -3.640625 13.015625 -5.734375 L 13.296875 -5.734375 L 15.71875 -4.484375 C 15.257812 -2.910156 14.484375 -1.726562 13.390625 -0.9375 C 12.296875 -0.15625 10.851562 0.234375 9.0625 0.234375 Z M 9.0625 0.234375 "/></g></g></g><g fill="#c9973a" fill-opacity="1"><g transform="translate(725.429197, 818.611853)"><g><path d="M 5.4375 -7.28125 L 5.4375 -2.75 L 13.34375 -2.75 L 13.34375 0 L 2.15625 0 L 2.15625 -16.578125 L 13.15625 -16.578125 L 13.15625 -13.828125 L 5.4375 -13.828125 L 5.4375 -9.953125 L 12.1875 -9.953125 L 12.1875 -7.28125 Z M 5.4375 -7.28125 "/></g></g></g><g fill="#c9973a" fill-opacity="1"><g transform="translate(739.724205, 818.611853)"><g/></g></g><g fill="#c9973a" fill-opacity="1"><g transform="translate(745.245636, 818.611853)"><g><path d="M 12.859375 -10.34375 L 12.859375 -16.578125 L 16.125 -16.578125 L 16.125 0 L 12.859375 0 L 12.859375 -7.546875 L 5.4375 -7.546875 L 5.4375 0 L 2.15625 0 L 2.15625 -16.578125 L 5.4375 -16.578125 L 5.4375 -10.34375 Z M 12.859375 -10.34375 "/></g></g></g><g fill="#c9973a" fill-opacity="1"><g transform="translate(763.576036, 818.611853)"><g><path d="M 8.78125 0.234375 C 6.5 0.234375 4.804688 -0.304688 3.703125 -1.390625 C 2.597656 -2.472656 2.046875 -4.082031 2.046875 -6.21875 L 2.046875 -16.578125 L 5.265625 -16.578125 L 5.265625 -6.234375 C 5.265625 -5.023438 5.550781 -4.117188 6.125 -3.515625 C 6.707031 -2.910156 7.59375 -2.609375 8.78125 -2.609375 C 11.132812 -2.609375 12.3125 -3.816406 12.3125 -6.234375 L 12.3125 -16.578125 L 15.515625 -16.578125 L 15.515625 -6.21875 C 15.515625 -4.082031 14.960938 -2.472656 13.859375 -1.390625 C 12.753906 -0.304688 11.0625 0.234375 8.78125 0.234375 Z M 8.78125 0.234375 "/></g></g></g><g fill="#c9973a" fill-opacity="1"><g transform="translate(781.192303, 818.611853)"><g><path d="M 2.15625 0 L 2.15625 -16.578125 L 9.234375 -16.578125 C 10.253906 -16.578125 11.113281 -16.414062 11.8125 -16.09375 C 12.519531 -15.769531 13.054688 -15.3125 13.421875 -14.71875 C 13.785156 -14.125 13.96875 -13.425781 13.96875 -12.625 C 13.96875 -11.882812 13.789062 -11.234375 13.4375 -10.671875 C 13.082031 -10.117188 12.570312 -9.671875 11.90625 -9.328125 L 11.90625 -9.09375 C 12.945312 -8.820312 13.75 -8.328125 14.3125 -7.609375 C 14.882812 -6.890625 15.171875 -6.007812 15.171875 -4.96875 C 15.171875 -3.375 14.691406 -2.144531 13.734375 -1.28125 C 12.773438 -0.425781 11.359375 0 9.484375 0 Z M 8.546875 -9.96875 C 10.078125 -9.96875 10.84375 -10.65625 10.84375 -12.03125 C 10.84375 -12.726562 10.648438 -13.25 10.265625 -13.59375 C 9.890625 -13.9375 9.316406 -14.109375 8.546875 -14.109375 L 5.4375 -14.109375 L 5.4375 -9.96875 Z M 9.15625 -2.59375 C 10.957031 -2.59375 11.859375 -3.414062 11.859375 -5.0625 C 11.859375 -6.707031 10.957031 -7.53125 9.15625 -7.53125 L 5.4375 -7.53125 L 5.4375 -2.59375 Z M 9.15625 -2.59375 "/></g></g></g></svg>